<?xml version="1.0" encoding="UTF-8" standalone="no"?>
<!DOCTYPE svg PUBLIC "-//W3C//DTD SVG 1.1//EN"
 "http://www.w3.org/Graphics/SVG/1.1/DTD/svg11.dtd">
<!-- Generated by graphviz version 2.38.0 (20140413.2041)
 -->
<!-- Title: G Pages: 1 -->
<svg width="1130pt" height="1540pt"
 viewBox="0.00 0.00 1130.06 1540.00" xmlns="http://www.w3.org/2000/svg" xmlns:xlink="http://www.w3.org/1999/xlink">
<g id="graph0" class="graph" transform="scale(1 1) rotate(0) translate(4 1536)">
<title>G</title>
<polygon fill="white" stroke="none" points="-4,4 -4,-1536 1126.06,-1536 1126.06,4 -4,4"/>
<!-- A0 -->
<g id="node1" class="node"><title>A0</title>
<ellipse fill="none" stroke="black" cx="921" cy="-1521" rx="11" ry="11"/>
</g>
<!-- A1 -->
<g id="node2" class="node"><title>A1</title>
<path fill="none" stroke="black" d="M891.216,-1425.5C891.216,-1425.5 950.784,-1425.5 950.784,-1425.5 956.784,-1425.5 962.784,-1431.5 962.784,-1437.5 962.784,-1437.5 962.784,-1449.5 962.784,-1449.5 962.784,-1455.5 956.784,-1461.5 950.784,-1461.5 950.784,-1461.5 891.216,-1461.5 891.216,-1461.5 885.216,-1461.5 879.216,-1455.5 879.216,-1449.5 879.216,-1449.5 879.216,-1437.5 879.216,-1437.5 879.216,-1431.5 885.216,-1425.5 891.216,-1425.5"/>
<text text-anchor="middle" x="921" y="-1440.5" font-family="Helvetica,sans-Serif" font-size="10.00">Start Screen</text>
</g>
<!-- A0&#45;&gt;A1 -->
<g id="edge1" class="edge"><title>A0&#45;&gt;A1</title>
<path fill="none" stroke="black" d="M921,-1509.82C921,-1500.1 921,-1485.02 921,-1471.8"/>
<polygon fill="black" stroke="black" points="921,-1461.73 925.5,-1471.73 921,-1466.73 921,-1471.73 921,-1471.73 921,-1471.73 921,-1466.73 916.5,-1471.73 921,-1461.73 921,-1461.73"/>
<text text-anchor="middle" x="947.95" y="-1483" font-family="Helvetica,sans-Serif" font-size="10.00">[DOM Load]</text>
</g>
<!-- A2 -->
<g id="node3" class="node"><title>A2</title>
<path fill="none" stroke="black" d="M569.708,-1340.5C569.708,-1340.5 654.292,-1340.5 654.292,-1340.5 660.292,-1340.5 666.292,-1346.5 666.292,-1352.5 666.292,-1352.5 666.292,-1364.5 666.292,-1364.5 666.292,-1370.5 660.292,-1376.5 654.292,-1376.5 654.292,-1376.5 569.708,-1376.5 569.708,-1376.5 563.708,-1376.5 557.708,-1370.5 557.708,-1364.5 557.708,-1364.5 557.708,-1352.5 557.708,-1352.5 557.708,-1346.5 563.708,-1340.5 569.708,-1340.5"/>
<text text-anchor="middle" x="612" y="-1361.5" font-family="Helvetica,sans-Serif" font-size="10.00">Add 16/2 Cards to</text>
<text text-anchor="middle" x="612" y="-1349.5" font-family="Helvetica,sans-Serif" font-size="10.00">Array</text>
</g>
<!-- A1&#45;&gt;A2 -->
<g id="edge2" class="edge"><title>A1&#45;&gt;A2</title>
<path fill="none" stroke="black" d="M879.14,-1440.68C813.471,-1437.22 689.782,-1428.06 651.558,-1407 642.112,-1401.79 633.986,-1393.36 627.599,-1385.02"/>
<polygon fill="black" stroke="black" points="621.808,-1376.85 631.262,-1382.41 624.699,-1380.93 627.59,-1385.01 627.59,-1385.01 627.59,-1385.01 624.699,-1380.93 623.919,-1387.61 621.808,-1376.85 621.808,-1376.85"/>
<text text-anchor="middle" x="691.721" y="-1398" font-family="Helvetica,sans-Serif" font-size="10.00">[Difficulty: Simple]</text>
</g>
<!-- A3 -->
<g id="node4" class="node"><title>A3</title>
<path fill="none" stroke="black" d="M696.708,-1340.5C696.708,-1340.5 781.292,-1340.5 781.292,-1340.5 787.292,-1340.5 793.292,-1346.5 793.292,-1352.5 793.292,-1352.5 793.292,-1364.5 793.292,-1364.5 793.292,-1370.5 787.292,-1376.5 781.292,-1376.5 781.292,-1376.5 696.708,-1376.5 696.708,-1376.5 690.708,-1376.5 684.708,-1370.5 684.708,-1364.5 684.708,-1364.5 684.708,-1352.5 684.708,-1352.5 684.708,-1346.5 690.708,-1340.5 696.708,-1340.5"/>
<text text-anchor="middle" x="739" y="-1361.5" font-family="Helvetica,sans-Serif" font-size="10.00">Add 36/2 Cards to</text>
<text text-anchor="middle" x="739" y="-1349.5" font-family="Helvetica,sans-Serif" font-size="10.00">Array</text>
</g>
<!-- A1&#45;&gt;A3 -->
<g id="edge3" class="edge"><title>A1&#45;&gt;A3</title>
<path fill="none" stroke="black" d="M879.207,-1440.28C831.233,-1436.76 756.897,-1427.99 739.446,-1407 734.788,-1401.4 733.292,-1394 733.331,-1386.72"/>
<polygon fill="black" stroke="black" points="734.237,-1376.7 737.818,-1387.07 733.786,-1381.68 733.336,-1386.66 733.336,-1386.66 733.336,-1386.66 733.786,-1381.68 728.854,-1386.26 734.237,-1376.7 734.237,-1376.7"/>
<text text-anchor="middle" x="775.277" y="-1398" font-family="Helvetica,sans-Serif" font-size="10.00">[Difficulty: Hard]</text>
</g>
<!-- A4 -->
<g id="node5" class="node"><title>A4</title>
<path fill="none" stroke="black" d="M944.546,-1340.5C944.546,-1340.5 1007.45,-1340.5 1007.45,-1340.5 1013.45,-1340.5 1019.45,-1346.5 1019.45,-1352.5 1019.45,-1352.5 1019.45,-1364.5 1019.45,-1364.5 1019.45,-1370.5 1013.45,-1376.5 1007.45,-1376.5 1007.45,-1376.5 944.546,-1376.5 944.546,-1376.5 938.546,-1376.5 932.546,-1370.5 932.546,-1364.5 932.546,-1364.5 932.546,-1352.5 932.546,-1352.5 932.546,-1346.5 938.546,-1340.5 944.546,-1340.5"/>
<text text-anchor="middle" x="976" y="-1355.5" font-family="Helvetica,sans-Serif" font-size="10.00">Toggle Audio</text>
</g>
<!-- A1&#45;&gt;A4 -->
<g id="edge4" class="edge"><title>A1&#45;&gt;A4</title>
<path fill="none" stroke="black" d="M925.257,-1425.35C928.096,-1415.9 932.439,-1404.25 938.537,-1395 941.047,-1391.19 944.038,-1387.5 947.221,-1384.02"/>
<polygon fill="black" stroke="black" points="954.382,-1376.79 950.54,-1387.07 950.863,-1380.35 947.343,-1383.9 947.343,-1383.9 947.343,-1383.9 950.863,-1380.35 944.147,-1380.73 954.382,-1376.79 954.382,-1376.79"/>
<text text-anchor="middle" x="956.231" y="-1398" font-family="Helvetica,sans-Serif" font-size="10.00">[Sound]</text>
</g>
<!-- A5 -->
<g id="node6" class="node"><title>A5</title>
<path fill="none" stroke="black" d="M1049.94,-1340.5C1049.94,-1340.5 1110.06,-1340.5 1110.06,-1340.5 1116.06,-1340.5 1122.06,-1346.5 1122.06,-1352.5 1122.06,-1352.5 1122.06,-1364.5 1122.06,-1364.5 1122.06,-1370.5 1116.06,-1376.5 1110.06,-1376.5 1110.06,-1376.5 1049.94,-1376.5 1049.94,-1376.5 1043.94,-1376.5 1037.94,-1370.5 1037.94,-1364.5 1037.94,-1364.5 1037.94,-1352.5 1037.94,-1352.5 1037.94,-1346.5 1043.94,-1340.5 1049.94,-1340.5"/>
<text text-anchor="middle" x="1080" y="-1355.5" font-family="Helvetica,sans-Serif" font-size="10.00">Toggle Hints</text>
</g>
<!-- A1&#45;&gt;A5 -->
<g id="edge6" class="edge"><title>A1&#45;&gt;A5</title>
<path fill="none" stroke="black" d="M954.377,-1425.42C965.699,-1419.6 978.412,-1413.04 990,-1407 1005.96,-1398.68 1023.47,-1389.46 1038.76,-1381.38"/>
<polygon fill="black" stroke="black" points="1047.97,-1376.51 1041.23,-1385.16 1043.55,-1378.85 1039.13,-1381.19 1039.13,-1381.19 1039.13,-1381.19 1043.55,-1378.85 1037.03,-1377.21 1047.97,-1376.51 1047.97,-1376.51"/>
<text text-anchor="middle" x="1027.17" y="-1398" font-family="Helvetica,sans-Serif" font-size="10.00">[Hints]</text>
</g>
<!-- A6 -->
<g id="node7" class="node"><title>A6</title>
<path fill="none" stroke="black" d="M795.663,-67.5C795.663,-67.5 886.337,-67.5 886.337,-67.5 892.337,-67.5 898.337,-73.5 898.337,-79.5 898.337,-79.5 898.337,-91.5 898.337,-91.5 898.337,-97.5 892.337,-103.5 886.337,-103.5 886.337,-103.5 795.663,-103.5 795.663,-103.5 789.663,-103.5 783.663,-97.5 783.663,-91.5 783.663,-91.5 783.663,-79.5 783.663,-79.5 783.663,-73.5 789.663,-67.5 795.663,-67.5"/>
<text text-anchor="middle" x="841" y="-88.5" font-family="Helvetica,sans-Serif" font-size="10.00">Credits Screen with</text>
<text text-anchor="middle" x="841" y="-76.5" font-family="Helvetica,sans-Serif" font-size="10.00">Tips</text>
</g>
<!-- A1&#45;&gt;A6 -->
<g id="edge8" class="edge"><title>A1&#45;&gt;A6</title>
<path fill="none" stroke="black" d="M915.672,-1425.2C911.018,-1408.54 905,-1382.54 905,-1359.5 905,-1359.5 905,-1359.5 905,-169.5 905,-146.201 888.988,-125.444 872.982,-110.515"/>
<polygon fill="black" stroke="black" points="865.196,-103.669 875.677,-106.893 868.951,-106.971 872.706,-110.272 872.706,-110.272 872.706,-110.272 868.951,-106.971 869.735,-113.652 865.196,-103.669 865.196,-103.669"/>
<text text-anchor="middle" x="923.611" y="-759.5" font-family="Helvetica,sans-Serif" font-size="10.00">[Credits]</text>
</g>
<!-- A7 -->
<g id="node8" class="node"><title>A7</title>
<path fill="none" stroke="black" d="M696.888,-1266.5C696.888,-1266.5 783.112,-1266.5 783.112,-1266.5 789.112,-1266.5 795.112,-1272.5 795.112,-1278.5 795.112,-1278.5 795.112,-1290.5 795.112,-1290.5 795.112,-1296.5 789.112,-1302.5 783.112,-1302.5 783.112,-1302.5 696.888,-1302.5 696.888,-1302.5 690.888,-1302.5 684.888,-1296.5 684.888,-1290.5 684.888,-1290.5 684.888,-1278.5 684.888,-1278.5 684.888,-1272.5 690.888,-1266.5 696.888,-1266.5"/>
<text text-anchor="middle" x="740" y="-1287.5" font-family="Helvetica,sans-Serif" font-size="10.00">Card Constructor &#45;</text>
<text text-anchor="middle" x="740" y="-1275.5" font-family="Helvetica,sans-Serif" font-size="10.00">Value and Face</text>
</g>
<!-- A2&#45;&gt;A7 -->
<g id="edge10" class="edge"><title>A2&#45;&gt;A7</title>
<path fill="none" stroke="black" d="M642.334,-1340.44C659.742,-1330.65 681.795,-1318.24 700.539,-1307.7"/>
<polygon fill="black" stroke="black" points="709.44,-1302.69 702.93,-1311.51 705.082,-1305.14 700.724,-1307.59 700.724,-1307.59 700.724,-1307.59 705.082,-1305.14 698.518,-1303.67 709.44,-1302.69 709.44,-1302.69"/>
</g>
<!-- A8 -->
<g id="node9" class="node"><title>A8</title>
<path fill="none" stroke="black" d="M566.768,-1266.5C566.768,-1266.5 655.232,-1266.5 655.232,-1266.5 661.232,-1266.5 667.232,-1272.5 667.232,-1278.5 667.232,-1278.5 667.232,-1290.5 667.232,-1290.5 667.232,-1296.5 661.232,-1302.5 655.232,-1302.5 655.232,-1302.5 566.768,-1302.5 566.768,-1302.5 560.768,-1302.5 554.768,-1296.5 554.768,-1290.5 554.768,-1290.5 554.768,-1278.5 554.768,-1278.5 554.768,-1272.5 560.768,-1266.5 566.768,-1266.5"/>
<text text-anchor="middle" x="611" y="-1287.5" font-family="Helvetica,sans-Serif" font-size="10.00">Set Stars to Moves</text>
<text text-anchor="middle" x="611" y="-1275.5" font-family="Helvetica,sans-Serif" font-size="10.00">Ratio</text>
</g>
<!-- A2&#45;&gt;A8 -->
<g id="edge12" class="edge"><title>A2&#45;&gt;A8</title>
<path fill="none" stroke="black" d="M611.763,-1340.44C611.65,-1332.31 611.512,-1322.38 611.385,-1313.2"/>
<polygon fill="black" stroke="black" points="611.242,-1302.94 615.881,-1312.88 611.312,-1307.94 611.381,-1312.94 611.381,-1312.94 611.381,-1312.94 611.312,-1307.94 606.882,-1313 611.242,-1302.94 611.242,-1302.94"/>
</g>
<!-- A3&#45;&gt;A7 -->
<g id="edge9" class="edge"><title>A3&#45;&gt;A7</title>
<path fill="none" stroke="black" d="M739.237,-1340.44C739.35,-1332.31 739.488,-1322.38 739.615,-1313.2"/>
<polygon fill="black" stroke="black" points="739.758,-1302.94 744.118,-1313 739.688,-1307.94 739.619,-1312.94 739.619,-1312.94 739.619,-1312.94 739.688,-1307.94 735.119,-1312.88 739.758,-1302.94 739.758,-1302.94"/>
</g>
<!-- A3&#45;&gt;A8 -->
<g id="edge11" class="edge"><title>A3&#45;&gt;A8</title>
<path fill="none" stroke="black" d="M708.666,-1340.44C691.258,-1330.65 669.205,-1318.24 650.461,-1307.7"/>
<polygon fill="black" stroke="black" points="641.56,-1302.69 652.482,-1303.67 645.918,-1305.14 650.276,-1307.59 650.276,-1307.59 650.276,-1307.59 645.918,-1305.14 648.07,-1311.51 641.56,-1302.69 641.56,-1302.69"/>
</g>
<!-- A4&#45;&gt;A1 -->
<g id="edge5" class="edge"><title>A4&#45;&gt;A1</title>
<path fill="none" stroke="black" d="M978.449,-1376.81C978.957,-1386.3 978.15,-1397.95 973,-1407 970.463,-1411.46 967.109,-1415.47 963.323,-1419.06"/>
<polygon fill="black" stroke="black" points="955.61,-1425.43 960.454,-1415.59 959.465,-1422.25 963.32,-1419.06 963.32,-1419.06 963.32,-1419.06 959.465,-1422.25 966.186,-1422.53 955.61,-1425.43 955.61,-1425.43"/>
</g>
<!-- A5&#45;&gt;A1 -->
<g id="edge7" class="edge"><title>A5&#45;&gt;A1</title>
<path fill="none" stroke="black" d="M1071.14,-1376.71C1065.06,-1386.9 1056.1,-1399.28 1045,-1407 1023.76,-1421.76 996.446,-1430.43 972.861,-1435.5"/>
<polygon fill="black" stroke="black" points="963.01,-1437.45 971.94,-1431.09 967.914,-1436.48 972.818,-1435.5 972.818,-1435.5 972.818,-1435.5 967.914,-1436.48 973.696,-1439.92 963.01,-1437.45 963.01,-1437.45"/>
</g>
<!-- A33 -->
<g id="node34" class="node"><title>A33</title>
<ellipse fill="none" stroke="black" cx="841" cy="-15" rx="11" ry="11"/>
<ellipse fill="none" stroke="black" cx="841" cy="-15" rx="15" ry="15"/>
</g>
<!-- A6&#45;&gt;A33 -->
<g id="edge48" class="edge"><title>A6&#45;&gt;A33</title>
<path fill="none" stroke="black" d="M841,-67.2146C841,-59.0995 841,-49.2846 841,-40.4271"/>
<polygon fill="black" stroke="black" points="841,-30.2765 845.5,-40.2764 841,-35.2765 841,-40.2765 841,-40.2765 841,-40.2765 841,-35.2765 836.5,-40.2765 841,-30.2765 841,-30.2765"/>
</g>
<!-- A11 -->
<g id="node12" class="node"><title>A11</title>
<path fill="none" stroke="black" d="M702.268,-1188.5C702.268,-1188.5 775.732,-1188.5 775.732,-1188.5 781.732,-1188.5 787.732,-1194.5 787.732,-1200.5 787.732,-1200.5 787.732,-1212.5 787.732,-1212.5 787.732,-1218.5 781.732,-1224.5 775.732,-1224.5 775.732,-1224.5 702.268,-1224.5 702.268,-1224.5 696.268,-1224.5 690.268,-1218.5 690.268,-1212.5 690.268,-1212.5 690.268,-1200.5 690.268,-1200.5 690.268,-1194.5 696.268,-1188.5 702.268,-1188.5"/>
<text text-anchor="middle" x="739" y="-1209.5" font-family="Helvetica,sans-Serif" font-size="10.00">Duplicate and</text>
<text text-anchor="middle" x="739" y="-1197.5" font-family="Helvetica,sans-Serif" font-size="10.00">Shuffle Position</text>
</g>
<!-- A7&#45;&gt;A11 -->
<g id="edge15" class="edge"><title>A7&#45;&gt;A11</title>
<path fill="none" stroke="black" d="M739.773,-1266.25C739.652,-1257.02 739.499,-1245.43 739.362,-1234.99"/>
<polygon fill="black" stroke="black" points="739.226,-1224.68 743.857,-1234.62 739.292,-1229.68 739.358,-1234.68 739.358,-1234.68 739.358,-1234.68 739.292,-1229.68 734.858,-1234.74 739.226,-1224.68 739.226,-1224.68"/>
</g>
<!-- A9 -->
<g id="node10" class="node"><title>A9</title>
<path fill="none" stroke="black" d="M569.053,-1184.5C569.053,-1184.5 656.947,-1184.5 656.947,-1184.5 662.947,-1184.5 668.947,-1190.5 668.947,-1196.5 668.947,-1196.5 668.947,-1216.5 668.947,-1216.5 668.947,-1222.5 662.947,-1228.5 656.947,-1228.5 656.947,-1228.5 569.053,-1228.5 569.053,-1228.5 563.053,-1228.5 557.053,-1222.5 557.053,-1216.5 557.053,-1216.5 557.053,-1196.5 557.053,-1196.5 557.053,-1190.5 563.053,-1184.5 569.053,-1184.5"/>
<text text-anchor="middle" x="613" y="-1215.5" font-family="Helvetica,sans-Serif" font-size="10.00">Add Timer, Moves,</text>
<text text-anchor="middle" x="613" y="-1203.5" font-family="Helvetica,sans-Serif" font-size="10.00">and Hints</text>
<text text-anchor="middle" x="613" y="-1191.5" font-family="Helvetica,sans-Serif" font-size="10.00">Placeholder</text>
</g>
<!-- A8&#45;&gt;A9 -->
<g id="edge13" class="edge"><title>A8&#45;&gt;A9</title>
<path fill="none" stroke="black" d="M611.454,-1266.25C611.667,-1258.17 611.927,-1248.28 612.173,-1238.94"/>
<polygon fill="black" stroke="black" points="612.441,-1228.75 616.676,-1238.86 612.309,-1233.75 612.178,-1238.74 612.178,-1238.74 612.178,-1238.74 612.309,-1233.75 607.679,-1238.63 612.441,-1228.75 612.441,-1228.75"/>
</g>
<!-- A10 -->
<g id="node11" class="node"><title>A10</title>
<path fill="none" stroke="black" d="M588.88,-1110.5C588.88,-1110.5 695.12,-1110.5 695.12,-1110.5 701.12,-1110.5 707.12,-1116.5 707.12,-1122.5 707.12,-1122.5 707.12,-1134.5 707.12,-1134.5 707.12,-1140.5 701.12,-1146.5 695.12,-1146.5 695.12,-1146.5 588.88,-1146.5 588.88,-1146.5 582.88,-1146.5 576.88,-1140.5 576.88,-1134.5 576.88,-1134.5 576.88,-1122.5 576.88,-1122.5 576.88,-1116.5 582.88,-1110.5 588.88,-1110.5"/>
<text text-anchor="middle" x="642" y="-1125.5" font-family="Helvetica,sans-Serif" font-size="10.00">Game Board Fragment</text>
</g>
<!-- A9&#45;&gt;A10 -->
<g id="edge14" class="edge"><title>A9&#45;&gt;A10</title>
<path fill="none" stroke="black" d="M621.078,-1184.33C624.401,-1175.62 628.288,-1165.43 631.804,-1156.22"/>
<polygon fill="black" stroke="black" points="635.429,-1146.72 636.068,-1157.67 633.647,-1151.39 631.864,-1156.06 631.864,-1156.06 631.864,-1156.06 633.647,-1151.39 627.66,-1154.46 635.429,-1146.72 635.429,-1146.72"/>
</g>
<!-- A12 -->
<g id="node13" class="node"><title>A12</title>
<path fill="none" stroke="black" d="M421.767,-1025.5C421.767,-1025.5 510.232,-1025.5 510.232,-1025.5 516.232,-1025.5 522.232,-1031.5 522.232,-1037.5 522.232,-1037.5 522.232,-1049.5 522.232,-1049.5 522.232,-1055.5 516.232,-1061.5 510.232,-1061.5 510.232,-1061.5 421.767,-1061.5 421.767,-1061.5 415.767,-1061.5 409.767,-1055.5 409.767,-1049.5 409.767,-1049.5 409.767,-1037.5 409.767,-1037.5 409.767,-1031.5 415.767,-1025.5 421.767,-1025.5"/>
<text text-anchor="middle" x="466" y="-1040.5" font-family="Helvetica,sans-Serif" font-size="10.00">Show Game Board</text>
</g>
<!-- A10&#45;&gt;A12 -->
<g id="edge17" class="edge"><title>A10&#45;&gt;A12</title>
<path fill="none" stroke="black" d="M576.663,-1113.76C558.092,-1108.42 538.283,-1101.3 521.193,-1092 509.741,-1085.77 498.559,-1076.85 489.288,-1068.42"/>
<polygon fill="black" stroke="black" points="481.986,-1061.52 492.345,-1065.12 485.621,-1064.96 489.256,-1068.39 489.256,-1068.39 489.256,-1068.39 485.621,-1064.96 486.166,-1071.66 481.986,-1061.52 481.986,-1061.52"/>
<text text-anchor="middle" x="580.904" y="-1083" font-family="Helvetica,sans-Serif" font-size="10.00">[Cards Complete, Append]</text>
</g>
<!-- A14 -->
<g id="node15" class="node"><title>A14</title>
<path fill="none" stroke="black" d="M611.497,-1025.5C611.497,-1025.5 690.503,-1025.5 690.503,-1025.5 696.503,-1025.5 702.503,-1031.5 702.503,-1037.5 702.503,-1037.5 702.503,-1049.5 702.503,-1049.5 702.503,-1055.5 696.503,-1061.5 690.503,-1061.5 690.503,-1061.5 611.497,-1061.5 611.497,-1061.5 605.497,-1061.5 599.497,-1055.5 599.497,-1049.5 599.497,-1049.5 599.497,-1037.5 599.497,-1037.5 599.497,-1031.5 605.497,-1025.5 611.497,-1025.5"/>
<text text-anchor="middle" x="651" y="-1046.5" font-family="Helvetica,sans-Serif" font-size="10.00">Select Card from</text>
<text text-anchor="middle" x="651" y="-1034.5" font-family="Helvetica,sans-Serif" font-size="10.00">Array</text>
</g>
<!-- A10&#45;&gt;A14 -->
<g id="edge19" class="edge"><title>A10&#45;&gt;A14</title>
<path fill="none" stroke="black" d="M641.654,-1110.29C641.671,-1101.25 642.004,-1089.99 643.216,-1080 643.547,-1077.28 643.99,-1074.45 644.497,-1071.64"/>
<polygon fill="black" stroke="black" points="646.534,-1061.72 648.931,-1072.42 645.528,-1066.62 644.523,-1071.52 644.523,-1071.52 644.523,-1071.52 645.528,-1066.62 640.115,-1070.61 646.534,-1061.72 646.534,-1061.72"/>
<text text-anchor="middle" x="685.392" y="-1083" font-family="Helvetica,sans-Serif" font-size="10.00">[Cards Remaining]</text>
</g>
<!-- A11&#45;&gt;A10 -->
<g id="edge16" class="edge"><title>A11&#45;&gt;A10</title>
<path fill="none" stroke="black" d="M716.989,-1188.25C703.719,-1177.86 686.632,-1164.47 672.121,-1153.1"/>
<polygon fill="black" stroke="black" points="663.924,-1146.68 674.571,-1149.3 667.86,-1149.76 671.795,-1152.84 671.795,-1152.84 671.795,-1152.84 667.86,-1149.76 669.02,-1156.39 663.924,-1146.68 663.924,-1146.68"/>
</g>
<!-- A13 -->
<g id="node14" class="node"><title>A13</title>
<path fill="none" stroke="black" d="M422.549,-940.5C422.549,-940.5 485.451,-940.5 485.451,-940.5 491.451,-940.5 497.451,-946.5 497.451,-952.5 497.451,-952.5 497.451,-964.5 497.451,-964.5 497.451,-970.5 491.451,-976.5 485.451,-976.5 485.451,-976.5 422.549,-976.5 422.549,-976.5 416.549,-976.5 410.549,-970.5 410.549,-964.5 410.549,-964.5 410.549,-952.5 410.549,-952.5 410.549,-946.5 416.549,-940.5 422.549,-940.5"/>
<text text-anchor="middle" x="454" y="-955.5" font-family="Helvetica,sans-Serif" font-size="10.00">Game Ready</text>
</g>
<!-- A12&#45;&gt;A13 -->
<g id="edge18" class="edge"><title>A12&#45;&gt;A13</title>
<path fill="none" stroke="black" d="M463.514,-1025.3C461.905,-1014.17 459.775,-999.445 457.939,-986.744"/>
<polygon fill="black" stroke="black" points="456.483,-976.676 462.368,-985.929 457.199,-981.624 457.914,-986.573 457.914,-986.573 457.914,-986.573 457.199,-981.624 453.461,-987.217 456.483,-976.676 456.483,-976.676"/>
</g>
<!-- A17 -->
<g id="node18" class="node"><title>A17</title>
<path fill="none" stroke="black" d="M200.949,-827.5C200.949,-827.5 251.051,-827.5 251.051,-827.5 257.051,-827.5 263.051,-833.5 263.051,-839.5 263.051,-839.5 263.051,-851.5 263.051,-851.5 263.051,-857.5 257.051,-863.5 251.051,-863.5 251.051,-863.5 200.949,-863.5 200.949,-863.5 194.949,-863.5 188.949,-857.5 188.949,-851.5 188.949,-851.5 188.949,-839.5 188.949,-839.5 188.949,-833.5 194.949,-827.5 200.949,-827.5"/>
<text text-anchor="middle" x="226" y="-842.5" font-family="Helvetica,sans-Serif" font-size="10.00">Card Click</text>
</g>
<!-- A13&#45;&gt;A17 -->
<g id="edge23" class="edge"><title>A13&#45;&gt;A17</title>
<path fill="none" stroke="black" d="M418.875,-940.4C378.958,-920.966 313.736,-889.214 270.345,-868.089"/>
<polygon fill="black" stroke="black" points="261.165,-863.62 272.126,-863.951 265.661,-865.809 270.156,-867.997 270.156,-867.997 270.156,-867.997 265.661,-865.809 268.187,-872.043 261.165,-863.62 261.165,-863.62"/>
</g>
<!-- A22 -->
<g id="node23" class="node"><title>A22</title>
<path fill="none" stroke="black" d="M353,-827.5C353,-827.5 383,-827.5 383,-827.5 389,-827.5 395,-833.5 395,-839.5 395,-839.5 395,-851.5 395,-851.5 395,-857.5 389,-863.5 383,-863.5 383,-863.5 353,-863.5 353,-863.5 347,-863.5 341,-857.5 341,-851.5 341,-851.5 341,-839.5 341,-839.5 341,-833.5 347,-827.5 353,-827.5"/>
<text text-anchor="middle" x="367.888" y="-842.5" font-family="Helvetica,sans-Serif" font-size="10.00">Hint</text>
</g>
<!-- A13&#45;&gt;A22 -->
<g id="edge30" class="edge"><title>A13&#45;&gt;A22</title>
<path fill="none" stroke="black" d="M440.562,-940.156C426.362,-921.828 403.826,-892.74 387.635,-871.843"/>
<polygon fill="black" stroke="black" points="381.343,-863.722 391.025,-868.871 384.405,-867.674 387.468,-871.627 387.468,-871.627 387.468,-871.627 384.405,-867.674 383.911,-874.383 381.343,-863.722 381.343,-863.722"/>
</g>
<!-- A24 -->
<g id="node25" class="node"><title>A24</title>
<path fill="none" stroke="black" d="M494.6,-827.5C494.6,-827.5 561.4,-827.5 561.4,-827.5 567.4,-827.5 573.4,-833.5 573.4,-839.5 573.4,-839.5 573.4,-851.5 573.4,-851.5 573.4,-857.5 567.4,-863.5 561.4,-863.5 561.4,-863.5 494.6,-863.5 494.6,-863.5 488.6,-863.5 482.6,-857.5 482.6,-851.5 482.6,-851.5 482.6,-839.5 482.6,-839.5 482.6,-833.5 488.6,-827.5 494.6,-827.5"/>
<text text-anchor="middle" x="528" y="-842.5" font-family="Helvetica,sans-Serif" font-size="10.00">Pause Screen</text>
</g>
<!-- A13&#45;&gt;A24 -->
<g id="edge33" class="edge"><title>A13&#45;&gt;A24</title>
<path fill="none" stroke="black" d="M465.562,-940.156C477.727,-921.91 497.001,-892.999 510.918,-872.122"/>
<polygon fill="black" stroke="black" points="516.519,-863.722 514.716,-874.539 513.745,-867.882 510.972,-872.042 510.972,-872.042 510.972,-872.042 513.745,-867.882 507.227,-869.546 516.519,-863.722 516.519,-863.722"/>
</g>
<!-- A27 -->
<g id="node28" class="node"><title>A27</title>
<path fill="none" stroke="black" d="M566.101,-744.5C566.101,-744.5 637.899,-744.5 637.899,-744.5 643.899,-744.5 649.899,-750.5 649.899,-756.5 649.899,-756.5 649.899,-768.5 649.899,-768.5 649.899,-774.5 643.899,-780.5 637.899,-780.5 637.899,-780.5 566.101,-780.5 566.101,-780.5 560.101,-780.5 554.101,-774.5 554.101,-768.5 554.101,-768.5 554.101,-756.5 554.101,-756.5 554.101,-750.5 560.101,-744.5 566.101,-744.5"/>
<text text-anchor="middle" x="602" y="-759.5" font-family="Helvetica,sans-Serif" font-size="10.00">Cheat Function</text>
</g>
<!-- A13&#45;&gt;A27 -->
<g id="edge37" class="edge"><title>A13&#45;&gt;A27</title>
<path fill="none" stroke="black" d="M497.648,-946.372C526.195,-936.767 561.813,-919.914 582,-892 603.374,-862.444 605.736,-819.016 604.57,-790.996"/>
<polygon fill="black" stroke="black" points="603.955,-780.72 609.044,-790.434 604.254,-785.711 604.552,-790.702 604.552,-790.702 604.552,-790.702 604.254,-785.711 600.06,-790.971 603.955,-780.72 603.955,-780.72"/>
</g>
<!-- A15 -->
<g id="node16" class="node"><title>A15</title>
<path fill="none" stroke="black" d="M622.386,-940.5C622.386,-940.5 693.614,-940.5 693.614,-940.5 699.614,-940.5 705.614,-946.5 705.614,-952.5 705.614,-952.5 705.614,-964.5 705.614,-964.5 705.614,-970.5 699.614,-976.5 693.614,-976.5 693.614,-976.5 622.386,-976.5 622.386,-976.5 616.386,-976.5 610.386,-970.5 610.386,-964.5 610.386,-964.5 610.386,-952.5 610.386,-952.5 610.386,-946.5 616.386,-940.5 622.386,-940.5"/>
<text text-anchor="middle" x="658" y="-955.5" font-family="Helvetica,sans-Serif" font-size="10.00">Card Fragment</text>
</g>
<!-- A14&#45;&gt;A15 -->
<g id="edge20" class="edge"><title>A14&#45;&gt;A15</title>
<path fill="none" stroke="black" d="M652.45,-1025.3C653.389,-1014.17 654.631,-999.445 655.702,-986.744"/>
<polygon fill="black" stroke="black" points="656.551,-976.676 660.195,-987.018 656.131,-981.658 655.711,-986.64 655.711,-986.64 655.711,-986.64 656.131,-981.658 651.227,-986.262 656.551,-976.676 656.551,-976.676"/>
</g>
<!-- A16 -->
<g id="node17" class="node"><title>A16</title>
<path fill="none" stroke="black" d="M692.268,-799.5C692.268,-799.5 775.732,-799.5 775.732,-799.5 781.732,-799.5 787.732,-805.5 787.732,-811.5 787.732,-811.5 787.732,-879.5 787.732,-879.5 787.732,-885.5 781.732,-891.5 775.732,-891.5 775.732,-891.5 692.268,-891.5 692.268,-891.5 686.268,-891.5 680.268,-885.5 680.268,-879.5 680.268,-879.5 680.268,-811.5 680.268,-811.5 680.268,-805.5 686.268,-799.5 692.268,-799.5"/>
<text text-anchor="middle" x="734" y="-878.5" font-family="Helvetica,sans-Serif" font-size="10.00">Data Attributes:</text>
<text text-anchor="middle" x="734" y="-866.5" font-family="Helvetica,sans-Serif" font-size="10.00">Value and</text>
<text text-anchor="middle" x="734" y="-854.5" font-family="Helvetica,sans-Serif" font-size="10.00">Face</text>
<text text-anchor="middle" x="734" y="-842.5" font-family="Helvetica,sans-Serif" font-size="10.00">+</text>
<text text-anchor="middle" x="734" y="-830.5" font-family="Helvetica,sans-Serif" font-size="10.00">Click</text>
<text text-anchor="middle" x="734" y="-818.5" font-family="Helvetica,sans-Serif" font-size="10.00">Methods: Flip and</text>
<text text-anchor="middle" x="734" y="-806.5" font-family="Helvetica,sans-Serif" font-size="10.00">Timer Start</text>
</g>
<!-- A15&#45;&gt;A16 -->
<g id="edge21" class="edge"><title>A15&#45;&gt;A16</title>
<path fill="none" stroke="black" d="M667.633,-940.057C672.824,-930.946 679.483,-919.703 685.978,-910 688.164,-906.734 690.458,-903.409 692.807,-900.081"/>
<polygon fill="black" stroke="black" points="698.734,-891.826 696.557,-902.574 695.818,-895.888 692.901,-899.949 692.901,-899.949 692.901,-899.949 695.818,-895.888 689.246,-897.325 698.734,-891.826 698.734,-891.826"/>
<text text-anchor="middle" x="706.011" y="-913" font-family="Helvetica,sans-Serif" font-size="10.00">[Append]</text>
</g>
<!-- A16&#45;&gt;A10 -->
<g id="edge22" class="edge"><title>A16&#45;&gt;A10</title>
<path fill="none" stroke="black" d="M745.992,-891.705C757.216,-944.63 766.798,-1032.59 726,-1092 722.612,-1096.93 718.394,-1101.18 713.664,-1104.84"/>
<polygon fill="black" stroke="black" points="705.277,-1110.47 711.077,-1101.16 709.43,-1107.68 713.583,-1104.9 713.583,-1104.9 713.583,-1104.9 709.43,-1107.68 716.089,-1108.64 705.277,-1110.47 705.277,-1110.47"/>
<text text-anchor="middle" x="776.011" y="-998" font-family="Helvetica,sans-Serif" font-size="10.00">[Append]</text>
</g>
<!-- A18 -->
<g id="node19" class="node"><title>A18</title>
<path fill="none" stroke="black" d="M77.6675,-685.5C77.6675,-685.5 178.332,-685.5 178.332,-685.5 184.332,-685.5 190.332,-691.5 190.332,-697.5 190.332,-697.5 190.332,-709.5 190.332,-709.5 190.332,-715.5 184.332,-721.5 178.332,-721.5 178.332,-721.5 77.6675,-721.5 77.6675,-721.5 71.6675,-721.5 65.6675,-715.5 65.6675,-709.5 65.6675,-709.5 65.6675,-697.5 65.6675,-697.5 65.6675,-691.5 71.6675,-685.5 77.6675,-685.5"/>
<text text-anchor="middle" x="128" y="-706.5" font-family="Helvetica,sans-Serif" font-size="10.00">Start Timer and</text>
<text text-anchor="middle" x="128" y="-694.5" font-family="Helvetica,sans-Serif" font-size="10.00">Remove Timer Check</text>
</g>
<!-- A17&#45;&gt;A18 -->
<g id="edge24" class="edge"><title>A17&#45;&gt;A18</title>
<path fill="none" stroke="black" d="M188.622,-831.059C166.561,-820.964 140.494,-804.753 127.549,-781 119.442,-766.124 119.526,-747.078 121.651,-731.712"/>
<polygon fill="black" stroke="black" points="123.373,-721.759 126.103,-732.379 122.521,-726.686 121.668,-731.612 121.668,-731.612 121.668,-731.612 122.521,-726.686 117.234,-730.845 123.373,-721.759 123.373,-721.759"/>
<text text-anchor="middle" x="170.226" y="-759.5" font-family="Helvetica,sans-Serif" font-size="10.00">[Timer Not Started]</text>
</g>
<!-- A19 -->
<g id="node20" class="node"><title>A19</title>
<path fill="none" stroke="black" d="M147.153,-563.5C147.153,-563.5 242.847,-563.5 242.847,-563.5 248.847,-563.5 254.847,-569.5 254.847,-575.5 254.847,-575.5 254.847,-587.5 254.847,-587.5 254.847,-593.5 248.847,-599.5 242.847,-599.5 242.847,-599.5 147.153,-599.5 147.153,-599.5 141.153,-599.5 135.153,-593.5 135.153,-587.5 135.153,-587.5 135.153,-575.5 135.153,-575.5 135.153,-569.5 141.153,-563.5 147.153,-563.5"/>
<text text-anchor="middle" x="195" y="-584.5" font-family="Helvetica,sans-Serif" font-size="10.00">Show Face and Play</text>
<text text-anchor="middle" x="195" y="-572.5" font-family="Helvetica,sans-Serif" font-size="10.00">Card Sound</text>
</g>
<!-- A17&#45;&gt;A19 -->
<g id="edge26" class="edge"><title>A17&#45;&gt;A19</title>
<path fill="none" stroke="black" d="M223.966,-827.309C218.711,-782.896 204.647,-664.033 198.249,-609.961"/>
<polygon fill="black" stroke="black" points="197.041,-599.754 202.685,-609.156 197.629,-604.719 198.217,-609.685 198.217,-609.685 198.217,-609.685 197.629,-604.719 193.748,-610.213 197.041,-599.754 197.041,-599.754"/>
<text text-anchor="middle" x="245.058" y="-700.5" font-family="Helvetica,sans-Serif" font-size="10.00">[Timer Started]</text>
</g>
<!-- A18&#45;&gt;A19 -->
<g id="edge25" class="edge"><title>A18&#45;&gt;A19</title>
<path fill="none" stroke="black" d="M137.599,-685.307C148.794,-665.257 167.418,-631.901 180.405,-608.64"/>
<polygon fill="black" stroke="black" points="185.418,-599.661 184.472,-610.586 182.981,-604.027 180.543,-608.392 180.543,-608.392 180.543,-608.392 182.981,-604.027 176.614,-606.199 185.418,-599.661 185.418,-599.661"/>
</g>
<!-- A19&#45;&gt;A13 -->
<g id="edge27" class="edge"><title>A19&#45;&gt;A13</title>
<path fill="none" stroke="black" d="M152.687,-599.62C119.949,-615.398 76.9408,-642.268 57,-681 36.5431,-720.735 46.4975,-741.583 67.561,-781 100.657,-842.933 118.605,-857.916 180,-892 249.99,-930.856 342.485,-946.801 400.1,-953.248"/>
<polygon fill="black" stroke="black" points="410.088,-954.31 399.668,-957.728 405.116,-953.781 400.144,-953.253 400.144,-953.253 400.144,-953.253 405.116,-953.781 400.619,-948.778 410.088,-954.31 410.088,-954.31"/>
<text text-anchor="middle" x="92.7195" y="-759.5" font-family="Helvetica,sans-Serif" font-size="10.00">[First Card]</text>
</g>
<!-- A30 -->
<g id="node31" class="node"><title>A30</title>
<path fill="none" stroke="black" d="M216.821,-478.5C216.821,-478.5 289.179,-478.5 289.179,-478.5 295.179,-478.5 301.179,-484.5 301.179,-490.5 301.179,-490.5 301.179,-502.5 301.179,-502.5 301.179,-508.5 295.179,-514.5 289.179,-514.5 289.179,-514.5 216.821,-514.5 216.821,-514.5 210.821,-514.5 204.821,-508.5 204.821,-502.5 204.821,-502.5 204.821,-490.5 204.821,-490.5 204.821,-484.5 210.821,-478.5 216.821,-478.5"/>
<text text-anchor="middle" x="253" y="-493.5" font-family="Helvetica,sans-Serif" font-size="10.00">Move Count ++</text>
</g>
<!-- A19&#45;&gt;A30 -->
<g id="edge40" class="edge"><title>A19&#45;&gt;A30</title>
<path fill="none" stroke="black" d="M207.018,-563.302C215.105,-551.728 225.914,-536.261 235.02,-523.23"/>
<polygon fill="black" stroke="black" points="240.998,-514.676 238.958,-525.45 238.134,-518.774 235.27,-522.873 235.27,-522.873 235.27,-522.873 238.134,-518.774 231.581,-520.295 240.998,-514.676 240.998,-514.676"/>
<text text-anchor="middle" x="259.954" y="-536" font-family="Helvetica,sans-Serif" font-size="10.00">[Second Card]</text>
</g>
<!-- A20 -->
<g id="node21" class="node"><title>A20</title>
<path fill="none" stroke="black" d="M334.606,-404.5C334.606,-404.5 421.394,-404.5 421.394,-404.5 427.394,-404.5 433.394,-410.5 433.394,-416.5 433.394,-416.5 433.394,-428.5 433.394,-428.5 433.394,-434.5 427.394,-440.5 421.394,-440.5 421.394,-440.5 334.606,-440.5 334.606,-440.5 328.606,-440.5 322.606,-434.5 322.606,-428.5 322.606,-428.5 322.606,-416.5 322.606,-416.5 322.606,-410.5 328.606,-404.5 334.606,-404.5"/>
<text text-anchor="middle" x="378" y="-419.5" font-family="Helvetica,sans-Serif" font-size="10.00">Card Match Check</text>
</g>
<!-- A21 -->
<g id="node22" class="node"><title>A21</title>
<path fill="none" stroke="black" d="M481.607,-311.5C481.607,-311.5 568.393,-311.5 568.393,-311.5 574.393,-311.5 580.393,-317.5 580.393,-323.5 580.393,-323.5 580.393,-343.5 580.393,-343.5 580.393,-349.5 574.393,-355.5 568.393,-355.5 568.393,-355.5 481.607,-355.5 481.607,-355.5 475.607,-355.5 469.607,-349.5 469.607,-343.5 469.607,-343.5 469.607,-323.5 469.607,-323.5 469.607,-317.5 475.607,-311.5 481.607,-311.5"/>
<text text-anchor="middle" x="525" y="-342.5" font-family="Helvetica,sans-Serif" font-size="10.00">Hide Face of</text>
<text text-anchor="middle" x="525" y="-330.5" font-family="Helvetica,sans-Serif" font-size="10.00">Unmatching Cards</text>
<text text-anchor="middle" x="525" y="-318.5" font-family="Helvetica,sans-Serif" font-size="10.00">Play Sad Sound</text>
</g>
<!-- A20&#45;&gt;A21 -->
<g id="edge28" class="edge"><title>A20&#45;&gt;A21</title>
<path fill="none" stroke="black" d="M407.042,-404.312C427.965,-391.929 456.587,-374.99 480.396,-360.898"/>
<polygon fill="black" stroke="black" points="489.26,-355.652 482.946,-364.618 484.957,-358.199 480.654,-360.745 480.654,-360.745 480.654,-360.745 484.957,-358.199 478.362,-356.873 489.26,-355.652 489.26,-355.652"/>
<text text-anchor="middle" x="465.168" y="-377" font-family="Helvetica,sans-Serif" font-size="10.00">[No]</text>
</g>
<!-- A31 -->
<g id="node32" class="node"><title>A31</title>
<path fill="none" stroke="black" d="M325.719,-315.5C325.719,-315.5 430.281,-315.5 430.281,-315.5 436.281,-315.5 442.281,-321.5 442.281,-327.5 442.281,-327.5 442.281,-339.5 442.281,-339.5 442.281,-345.5 436.281,-351.5 430.281,-351.5 430.281,-351.5 325.719,-351.5 325.719,-351.5 319.719,-351.5 313.719,-345.5 313.719,-339.5 313.719,-339.5 313.719,-327.5 313.719,-327.5 313.719,-321.5 319.719,-315.5 325.719,-315.5"/>
<text text-anchor="middle" x="378" y="-336.5" font-family="Helvetica,sans-Serif" font-size="10.00">Remove Click Method,</text>
<text text-anchor="middle" x="378" y="-324.5" font-family="Helvetica,sans-Serif" font-size="10.00">Play Happy Sound</text>
</g>
<!-- A20&#45;&gt;A31 -->
<g id="edge42" class="edge"><title>A20&#45;&gt;A31</title>
<path fill="none" stroke="black" d="M378,-404.312C378,-392.157 378,-375.614 378,-361.682"/>
<polygon fill="black" stroke="black" points="378,-351.653 382.5,-361.653 378,-356.653 378,-361.653 378,-361.653 378,-361.653 378,-356.653 373.5,-361.653 378,-351.653 378,-351.653"/>
<text text-anchor="middle" x="389.393" y="-377" font-family="Helvetica,sans-Serif" font-size="10.00">[Yes]</text>
</g>
<!-- A21&#45;&gt;A13 -->
<g id="edge29" class="edge"><title>A21&#45;&gt;A13</title>
<path fill="none" stroke="black" d="M580.697,-345.152C620.849,-356.436 668,-378.782 668,-421.5 668,-582.5 668,-582.5 668,-582.5 668,-722.617 689.734,-778.192 608,-892 584.708,-924.432 542.04,-940.92 507.514,-949.235"/>
<polygon fill="black" stroke="black" points="497.554,-951.466 506.328,-944.889 502.433,-950.373 507.312,-949.28 507.312,-949.28 507.312,-949.28 502.433,-950.373 508.296,-953.671 497.554,-951.466 497.554,-951.466"/>
</g>
<!-- A23 -->
<g id="node24" class="node"><title>A23</title>
<path fill="none" stroke="black" d="M322.104,-681.5C322.104,-681.5 413.896,-681.5 413.896,-681.5 419.896,-681.5 425.896,-687.5 425.896,-693.5 425.896,-693.5 425.896,-713.5 425.896,-713.5 425.896,-719.5 419.896,-725.5 413.896,-725.5 413.896,-725.5 322.104,-725.5 322.104,-725.5 316.104,-725.5 310.104,-719.5 310.104,-713.5 310.104,-713.5 310.104,-693.5 310.104,-693.5 310.104,-687.5 316.104,-681.5 322.104,-681.5"/>
<text text-anchor="middle" x="368" y="-712.5" font-family="Helvetica,sans-Serif" font-size="10.00">Highlight 3 Possible</text>
<text text-anchor="middle" x="368" y="-700.5" font-family="Helvetica,sans-Serif" font-size="10.00">Cards and Hint</text>
<text text-anchor="middle" x="368" y="-688.5" font-family="Helvetica,sans-Serif" font-size="10.00">Counter &#45;&#45;</text>
</g>
<!-- A22&#45;&gt;A23 -->
<g id="edge31" class="edge"><title>A22&#45;&gt;A23</title>
<path fill="none" stroke="black" d="M363.386,-827.333C360.988,-804.673 360.609,-764.352 362.249,-736.107"/>
<polygon fill="black" stroke="black" points="362.976,-725.934 366.751,-736.23 362.619,-730.922 362.263,-735.909 362.263,-735.909 362.263,-735.909 362.619,-730.922 357.774,-735.588 362.976,-725.934 362.976,-725.934"/>
</g>
<!-- A23&#45;&gt;A22 -->
<g id="edge32" class="edge"><title>A23&#45;&gt;A22</title>
<path fill="none" stroke="black" d="M373.024,-725.934C375.16,-750.392 375.313,-790.445 373.484,-817.137"/>
<polygon fill="black" stroke="black" points="372.614,-827.333 368.98,-816.987 373.039,-822.351 373.464,-817.369 373.464,-817.369 373.464,-817.369 373.039,-822.351 377.948,-817.752 372.614,-827.333 372.614,-827.333"/>
</g>
<!-- A25 -->
<g id="node26" class="node"><title>A25</title>
<path fill="none" stroke="black" d="M494.262,-685.5C494.262,-685.5 587.737,-685.5 587.737,-685.5 593.737,-685.5 599.737,-691.5 599.737,-697.5 599.737,-697.5 599.737,-709.5 599.737,-709.5 599.737,-715.5 593.737,-721.5 587.737,-721.5 587.737,-721.5 494.262,-721.5 494.262,-721.5 488.262,-721.5 482.262,-715.5 482.262,-709.5 482.262,-709.5 482.262,-697.5 482.262,-697.5 482.262,-691.5 488.262,-685.5 494.262,-685.5"/>
<text text-anchor="middle" x="541" y="-706.5" font-family="Helvetica,sans-Serif" font-size="10.00">Show Pause Splash</text>
<text text-anchor="middle" x="541" y="-694.5" font-family="Helvetica,sans-Serif" font-size="10.00">and Pause Timer</text>
</g>
<!-- A24&#45;&gt;A25 -->
<g id="edge34" class="edge"><title>A24&#45;&gt;A25</title>
<path fill="none" stroke="black" d="M529.594,-827.333C531.806,-803.507 535.832,-760.158 538.46,-731.849"/>
<polygon fill="black" stroke="black" points="539.393,-721.807 542.949,-732.18 538.931,-726.786 538.468,-731.764 538.468,-731.764 538.468,-731.764 538.931,-726.786 533.987,-731.348 539.393,-721.807 539.393,-721.807"/>
</g>
<!-- A26 -->
<g id="node27" class="node"><title>A26</title>
<path fill="none" stroke="black" d="M417.153,-563.5C417.153,-563.5 522.847,-563.5 522.847,-563.5 528.847,-563.5 534.847,-569.5 534.847,-575.5 534.847,-575.5 534.847,-587.5 534.847,-587.5 534.847,-593.5 528.847,-599.5 522.847,-599.5 522.847,-599.5 417.153,-599.5 417.153,-599.5 411.153,-599.5 405.153,-593.5 405.153,-587.5 405.153,-587.5 405.153,-575.5 405.153,-575.5 405.153,-569.5 411.153,-563.5 417.153,-563.5"/>
<text text-anchor="middle" x="470" y="-584.5" font-family="Helvetica,sans-Serif" font-size="10.00">Remove Pause Splash</text>
<text text-anchor="middle" x="470" y="-572.5" font-family="Helvetica,sans-Serif" font-size="10.00">and Resume Timer</text>
</g>
<!-- A25&#45;&gt;A26 -->
<g id="edge35" class="edge"><title>A25&#45;&gt;A26</title>
<path fill="none" stroke="black" d="M506.426,-685.448C497.583,-679.507 488.96,-672.02 483.217,-663 473.171,-647.222 469.973,-626.298 469.231,-609.738"/>
<polygon fill="black" stroke="black" points="469.05,-599.583 473.727,-609.501 469.139,-604.582 469.228,-609.581 469.228,-609.581 469.228,-609.581 469.139,-604.582 464.729,-609.661 469.05,-599.583 469.05,-599.583"/>
<text text-anchor="middle" x="505.391" y="-637.5" font-family="Helvetica,sans-Serif" font-size="10.00">[Resume]</text>
</g>
<!-- A26&#45;&gt;A13 -->
<g id="edge36" class="edge"><title>A26&#45;&gt;A13</title>
<path fill="none" stroke="black" d="M468.971,-599.831C468.642,-605.609 468.289,-612.081 468,-618 462.343,-733.966 457.109,-872.288 454.992,-930.047"/>
<polygon fill="black" stroke="black" points="454.622,-940.184 450.49,-930.026 454.804,-935.187 454.987,-930.19 454.987,-930.19 454.987,-930.19 454.804,-935.187 459.484,-930.354 454.622,-940.184 454.622,-940.184"/>
</g>
<!-- A28 -->
<g id="node29" class="node"><title>A28</title>
<path fill="none" stroke="black" d="M546.719,-618.5C546.719,-618.5 641.281,-618.5 641.281,-618.5 647.281,-618.5 653.281,-624.5 653.281,-630.5 653.281,-630.5 653.281,-650.5 653.281,-650.5 653.281,-656.5 647.281,-662.5 641.281,-662.5 641.281,-662.5 546.719,-662.5 546.719,-662.5 540.719,-662.5 534.719,-656.5 534.719,-650.5 534.719,-650.5 534.719,-630.5 534.719,-630.5 534.719,-624.5 540.719,-618.5 546.719,-618.5"/>
<text text-anchor="middle" x="594" y="-649.5" font-family="Helvetica,sans-Serif" font-size="10.00">Flip All Cards Pause</text>
<text text-anchor="middle" x="594" y="-637.5" font-family="Helvetica,sans-Serif" font-size="10.00">Timer and Maximize</text>
<text text-anchor="middle" x="594" y="-625.5" font-family="Helvetica,sans-Serif" font-size="10.00">Score</text>
</g>
<!-- A27&#45;&gt;A28 -->
<g id="edge38" class="edge"><title>A27&#45;&gt;A28</title>
<path fill="none" stroke="black" d="M606.114,-744.414C609.441,-728.032 612.975,-702.663 609,-681 608.479,-678.159 607.763,-675.258 606.925,-672.381"/>
<polygon fill="black" stroke="black" points="603.709,-662.825 611.163,-670.867 605.304,-667.564 606.898,-672.303 606.898,-672.303 606.898,-672.303 605.304,-667.564 602.633,-673.738 603.709,-662.825 603.709,-662.825"/>
</g>
<!-- A29 -->
<g id="node30" class="node"><title>A29</title>
<path fill="none" stroke="black" d="M674.438,-152.5C674.438,-152.5 759.562,-152.5 759.562,-152.5 765.562,-152.5 771.562,-158.5 771.562,-164.5 771.562,-164.5 771.562,-176.5 771.562,-176.5 771.562,-182.5 765.562,-188.5 759.562,-188.5 759.562,-188.5 674.438,-188.5 674.438,-188.5 668.438,-188.5 662.438,-182.5 662.438,-176.5 662.438,-176.5 662.438,-164.5 662.438,-164.5 662.438,-158.5 668.438,-152.5 674.438,-152.5"/>
<text text-anchor="middle" x="717" y="-173.5" font-family="Helvetica,sans-Serif" font-size="10.00">Score Screen with</text>
<text text-anchor="middle" x="717" y="-161.5" font-family="Helvetica,sans-Serif" font-size="10.00">Stars and Time</text>
</g>
<!-- A28&#45;&gt;A29 -->
<g id="edge39" class="edge"><title>A28&#45;&gt;A29</title>
<path fill="none" stroke="black" d="M600.094,-618.35C605.316,-598.343 612,-567.385 612,-540 612,-540 612,-540 612,-243.5 612,-219.314 631.184,-202.649 653.152,-191.495"/>
<polygon fill="black" stroke="black" points="662.347,-187.193 655.196,-195.507 657.818,-189.312 653.289,-191.431 653.289,-191.431 653.289,-191.431 657.818,-189.312 651.383,-187.355 662.347,-187.193 662.347,-187.193"/>
</g>
<!-- A29&#45;&gt;A1 -->
<g id="edge46" class="edge"><title>A29&#45;&gt;A1</title>
<path fill="none" stroke="black" d="M771.754,-186.518C798.079,-197.405 824,-215.288 824,-243.5 824,-1359.5 824,-1359.5 824,-1359.5 824,-1386.92 846.647,-1407.22 870.055,-1420.88"/>
<polygon fill="black" stroke="black" points="879.019,-1425.79 868.086,-1424.93 874.634,-1423.38 870.249,-1420.98 870.249,-1420.98 870.249,-1420.98 874.634,-1423.38 872.411,-1417.04 879.019,-1425.79 879.019,-1425.79"/>
<text text-anchor="middle" x="850.674" y="-842.5" font-family="Helvetica,sans-Serif" font-size="10.00">[Play Again]</text>
</g>
<!-- A29&#45;&gt;A6 -->
<g id="edge47" class="edge"><title>A29&#45;&gt;A6</title>
<path fill="none" stroke="black" d="M742.693,-152.302C761.314,-139.838 786.682,-122.858 806.984,-109.269"/>
<polygon fill="black" stroke="black" points="815.34,-103.676 809.533,-112.978 811.185,-106.457 807.03,-109.238 807.03,-109.238 807.03,-109.238 811.185,-106.457 804.527,-105.499 815.34,-103.676 815.34,-103.676"/>
<text text-anchor="middle" x="813.675" y="-125" font-family="Helvetica,sans-Serif" font-size="10.00">[End Game]</text>
</g>
<!-- A30&#45;&gt;A20 -->
<g id="edge41" class="edge"><title>A30&#45;&gt;A20</title>
<path fill="none" stroke="black" d="M282.623,-478.437C299.623,-468.645 321.159,-456.24 339.464,-445.697"/>
<polygon fill="black" stroke="black" points="348.156,-440.69 341.737,-449.581 343.824,-443.186 339.491,-445.681 339.491,-445.681 339.491,-445.681 343.824,-443.186 337.245,-441.782 348.156,-440.69 348.156,-440.69"/>
</g>
<!-- A31&#45;&gt;A13 -->
<g id="edge43" class="edge"><title>A31&#45;&gt;A13</title>
<path fill="none" stroke="black" d="M313.449,-336.2C205.488,-340.815 0,-357.947 0,-421.5 0,-846.5 0,-846.5 0,-846.5 0,-928.103 280.261,-949.998 400.384,-955.635"/>
<polygon fill="black" stroke="black" points="410.469,-956.087 400.277,-960.134 405.474,-955.863 400.479,-955.639 400.479,-955.639 400.479,-955.639 405.474,-955.863 400.68,-951.143 410.469,-956.087 410.469,-956.087"/>
<text text-anchor="middle" x="43.0625" y="-578.5" font-family="Helvetica,sans-Serif" font-size="10.00">[Unmatched Cards]</text>
</g>
<!-- A32 -->
<g id="node33" class="node"><title>A32</title>
<path fill="none" stroke="black" d="M452.716,-226.5C452.716,-226.5 527.284,-226.5 527.284,-226.5 533.284,-226.5 539.284,-232.5 539.284,-238.5 539.284,-238.5 539.284,-250.5 539.284,-250.5 539.284,-256.5 533.284,-262.5 527.284,-262.5 527.284,-262.5 452.716,-262.5 452.716,-262.5 446.716,-262.5 440.716,-256.5 440.716,-250.5 440.716,-250.5 440.716,-238.5 440.716,-238.5 440.716,-232.5 446.716,-226.5 452.716,-226.5"/>
<text text-anchor="middle" x="490" y="-247.5" font-family="Helvetica,sans-Serif" font-size="10.00">Stop Timer and</text>
<text text-anchor="middle" x="490" y="-235.5" font-family="Helvetica,sans-Serif" font-size="10.00">Calculate Score</text>
</g>
<!-- A31&#45;&gt;A32 -->
<g id="edge44" class="edge"><title>A31&#45;&gt;A32</title>
<path fill="none" stroke="black" d="M400.128,-315.312C417.232,-302.025 441.088,-283.494 459.924,-268.862"/>
<polygon fill="black" stroke="black" points="467.918,-262.653 462.782,-272.341 463.97,-265.72 460.021,-268.787 460.021,-268.787 460.021,-268.787 463.97,-265.72 457.26,-265.233 467.918,-262.653 467.918,-262.653"/>
<text text-anchor="middle" x="488.616" y="-284" font-family="Helvetica,sans-Serif" font-size="10.00">[All Cards Matched]</text>
</g>
<!-- A32&#45;&gt;A29 -->
<g id="edge45" class="edge"><title>A32&#45;&gt;A29</title>
<path fill="none" stroke="black" d="M539.341,-226.408C557.709,-220.156 578.762,-213.118 598,-207 615.682,-201.377 634.924,-195.522 652.68,-190.227"/>
<polygon fill="black" stroke="black" points="662.371,-187.348 654.067,-194.51 657.578,-188.772 652.785,-190.196 652.785,-190.196 652.785,-190.196 657.578,-188.772 651.504,-185.882 662.371,-187.348 662.371,-187.348"/>
</g>
</g>
</svg>
